<svg xmlns="http://www.w3.org/2000/svg" xml:space="preserve" width="150mm" height="285.75"
     style="shape-rendering:geometricPrecision;text-rendering:geometricPrecision;image-rendering:optimizeQuality;fill-rule:evenodd;clip-rule:evenodd"
     viewBox="0 0 62.036 31.268">
    <defs>
        <style>
            .fil3{fill:#000;fill-rule:nonzero}
        </style>
    </defs>
    <g>
        <g>
            <path d="M0 0v18.96h12.307v12.308h37.421V18.96h12.308V0H0z" style="fill:#fefefe"/>
            <path style="fill:#fdd901;fill-rule:nonzero" d="M39.545 27.51h6.426v-5.723h-6.426z"/>
            <path style="fill:#0068ff;fill-rule:nonzero" d="M39.545 21.788h6.426v-5.723h-6.426z"/>
            <path class="fil3"
                  d="M3.758 15.203h11.445V3.758H3.758v11.445zm12.307 0h42.213V3.758H16.065v11.445zM38.683 27.51V16.065H16.065V27.51h22.618zm.862-11.445V27.51h6.426V16.065h-6.426zm6.857 12.307H15.203V16.065H2.896V2.896H59.14v13.169H46.832v12.307h-.43z"/>
            <path class="fil3"
                  d="M22.644 10.492v.324c0 .195-.02.381-.06.56a1.102 1.102 0 0 1-.648.8c-.18.08-.41.122-.692.122-.002 0-.002 0-.002.002-.288 0-.523-.041-.705-.123a1.065 1.065 0 0 1-.428-.335 1.217 1.217 0 0 1-.213-.494 2.806 2.806 0 0 1-.06-.59V8.212c0-.209.02-.408.06-.594.037-.186.108-.35.213-.49.104-.14.246-.251.428-.335.182-.081.415-.123.696-.123l.005-.004c.286 0 .519.041.7.123.183.084.327.195.431.333.105.138.176.297.215.477.04.18.06.369.06.563v.314h-.91v-.31c0-.081-.006-.163-.017-.242a.67.67 0 0 0-.069-.216.408.408 0 0 0-.148-.155.489.489 0 0 0-.258-.059.504.504 0 0 0-.266.061.448.448 0 0 0-.15.161.674.674 0 0 0-.07.23 2.11 2.11 0 0 0-.015.27v2.538c0 .09.004.177.013.263a.629.629 0 0 0 .067.23c.033.07.084.124.148.164.064.04.153.06.269.06a.52.52 0 0 0 .253-.054.41.41 0 0 0 .153-.144.619.619 0 0 0 .073-.212c.01-.08.018-.163.018-.249v-.32h.91zm2.488-3.818c0-.002.002-.004.005-.004.286 0 .519.042.7.123.183.084.325.195.429.335.104.14.175.306.215.492.038.188.058.385.058.592v2.546c0 .209-.02.408-.058.594-.04.189-.11.352-.215.492-.104.14-.249.251-.43.333a1.73 1.73 0 0 1-.7.123l-.004-.002v.002c-.286 0-.519-.042-.7-.123a1.065 1.065 0 0 1-.43-.335 1.22 1.22 0 0 1-.214-.494 2.813 2.813 0 0 1-.06-.59V8.212c0-.209.02-.408.06-.594.037-.187.11-.35.217-.49a1.09 1.09 0 0 1 .43-.335c.183-.082.416-.123.697-.123v.004zm0 4.797c.002 0 .007 0 .009.002.002.003.004.003.007.003a.5.5 0 0 0 .257-.065.39.39 0 0 0 .146-.161.696.696 0 0 0 .067-.228c.011-.086.016-.176.016-.268V8.216c0-.09-.005-.178-.014-.264a.67.67 0 0 0-.064-.23.416.416 0 0 0-.149-.164.516.516 0 0 0-.27-.06.043.043 0 0 1-.018-.005.501.501 0 0 0-.258.065.412.412 0 0 0-.144.161.694.694 0 0 0-.066.229 2.099 2.099 0 0 0-.016.268v2.536c0 .09.005.178.016.264a.671.671 0 0 0 .064.23c.033.07.084.124.149.164.064.04.155.06.268.06zm3.468-3.32.058 4.078h-.856V6.745h1.174l.765 3.332.768-3.332h1.169v5.484h-.857l.053-4.031-.74 3.347h-.784l-.75-3.393zm4.445 4.078V6.745h2.458v.829h-1.55v1.45h1.286v.83h-1.287v1.55h1.551v.825h-2.458zm7.485-1.942a.718.718 0 0 0-.031-.212.44.44 0 0 0-.257-.282.579.579 0 0 0-.227-.04h-.486V11.4h.488a.882.882 0 0 0 .222-.025.36.36 0 0 0 .164-.086.39.39 0 0 0 .1-.173c.02-.074.03-.168.027-.283v-.546zm-.064-2.226a.83.83 0 0 0-.027-.217.467.467 0 0 0-.084-.168.379.379 0 0 0-.149-.106.605.605 0 0 0-.226-.038h-.45v1.442h.385c.105 0 .191-.013.264-.036a.395.395 0 0 0 .173-.106.394.394 0 0 0 .094-.18.988.988 0 0 0 .024-.26l-.004-.33zm.97 2.757c0 .254-.03.467-.085.645a1.038 1.038 0 0 1-.262.437 1.058 1.058 0 0 1-.44.247 2.2 2.2 0 0 1-.623.078h-1.402v-5.48h1.382c.236 0 .44.027.61.084.171.056.313.138.426.245a.994.994 0 0 1 .251.39c.056.156.082.332.082.528v.32c0 .288-.042.514-.126.681a.622.622 0 0 1-.413.333.725.725 0 0 1 .44.322c.106.168.16.381.16.639v.531zm1.844-4.077h1.222l.994 5.488h-.919l-.148-.97h-1.085l-.147.97h-.911l.994-5.488zm.186 3.736h.845l-.421-2.778-.424 2.778zm5.796.015v.324c0 .195-.02.38-.06.559-.042.18-.116.337-.22.473a1.1 1.1 0 0 1-.428.327c-.18.081-.41.123-.692.123-.002 0-.002 0-.002.002-.289 0-.524-.042-.706-.123a1.065 1.065 0 0 1-.428-.335 1.217 1.217 0 0 1-.213-.494 2.806 2.806 0 0 1-.06-.59V8.211c0-.21.02-.408.06-.595.038-.186.109-.35.213-.49s.246-.25.428-.334c.182-.082.415-.124.697-.124l.004-.004c.286 0 .52.042.701.124.182.083.326.194.43.332.105.138.176.298.216.478.04.18.06.368.06.563v.314h-.91v-.31c0-.082-.007-.163-.018-.243a.672.672 0 0 0-.068-.215.408.408 0 0 0-.15-.155.487.487 0 0 0-.256-.059.505.505 0 0 0-.267.06.448.448 0 0 0-.15.162.674.674 0 0 0-.07.23 2.11 2.11 0 0 0-.015.27v2.537c0 .09.005.178.013.264a.627.627 0 0 0 .067.23c.033.07.084.124.149.163.064.04.153.061.268.061a.521.521 0 0 0 .253-.054.41.41 0 0 0 .153-.145.62.62 0 0 0 .073-.211c.011-.08.018-.163.018-.25v-.32h.91zm1.22 1.737V6.745h.906v2.304h.333l.852-2.304h.967l-.972 2.68 1.047 2.804h-.967l-.9-2.35h-.36v2.35h-.905zM20.594 19.08h1.222l.994 5.488h-.918l-.15-.969h-1.084l-.147.97H19.6l.994-5.489zm.186 3.736h.845l-.421-2.777-.424 2.777zm3.113 1.752v-5.484h.906v4.666h1.482v.818h-2.388zm3.378 0v-5.484h.907v5.484h-.907zm5.134-5.488L31.4 24.568h-1.222l-1.005-5.488h.912l.703 4.546.703-4.546h.914zm.986 5.488v-5.484h2.458v.83H34.3v1.45h1.286v.829H34.3v1.55h1.55v.825h-2.458zM9.137 12.362l-2.345-3.11a1.758 1.758 0 0 1-.347-1.224 1.76 1.76 0 0 1 1.93-1.591c.41.041.806.225 1.105.542.3-.317.696-.501 1.107-.542a1.756 1.756 0 0 1 1.362.45c.336.306.528.716.567 1.141.04.424-.073.861-.347 1.224L9.48 12.817l-.343-.455zM7.478 8.734l2.003 2.655 2.002-2.655a.902.902 0 1 0-1.45-1.077l-.552.755-.552-.755a.911.911 0 0 0-.638-.365.9.9 0 0 0-.7.231.9.9 0 0 0-.112 1.211z"/>
        </g>
    </g>
</svg>
